#!OML:ASF G:\JayActor3\Patient Classification 1\Patient 1\Session 5\male.ASF
:FULLY-SPECIFIED
:DEGREES
418
root 29.5232 14.2164 -4.30503 -44.4241 -87.2418 57.0511
lowerback 33.5504 -0.959063 0.17584
upperback 7.27661 -2.04547 -1.09057
thorax -9.14085 -1.26263 -0.436076
lowerneck -4.47013 0.525078 3.24977
upperneck -18.3277 0.0904763 0.0649619
head -4.77594 -0.471247 -0.500415
rclavicle 2.34566e-014 1.86858e-014
rhumerus -20.1384 1.67092 -86.4913
rradius 46.1167
rwrist -8.94744
rhand -18.9049 -7.03155
rfingers 7.12502
rthumb 7.39696 -36.8822
lclavicle 2.34566e-014 1.86858e-014
lhumerus -21.499 -2.86556 82.0674
lradius 46.671
lwrist 29.207
lhand -17.9405 13.5487
lfingers 7.12502
lthumb 8.32777 43.3646
rfemur -71.0162 0.362045 13.1101
rtibia 46.6088
rfoot -14.5913 -11.0341
rtoes -8.35215
lfemur -46.4937 -0.897863 -25.1398
ltibia 79.6248
lfoot -29.7786 9.07554
ltoes -20.54
419
root 29.3902 14.1996 -4.33689 -40.1271 -87.0043 52.8166
lowerback 33.485 -1.04255 0.272601
upperback 7.26188 -2.11033 -1.08551
thorax -9.13538 -1.29161 -0.459649
lowerneck -4.50075 0.489847 3.26484
upperneck -18.2838 0.0419891 0.0597605
head -4.75816 -0.494205 -0.503308
rclavicle -7.95139e-016 3.24019e-014
rhumerus -20.2098 1.61327 -86.4644
rradius 46.0368
rwrist -8.92179
rhand -18.9243 -7.02884
rfingers 7.12502
rthumb 7.37825 -36.8802
lclavicle -7.95139e-016 3.24019e-014
lhumerus -21.5471 -2.87725 82.1225
lradius 46.6741
lwrist 29.0684
lhand -17.9263 13.5327
lfingers 7.12502
lthumb 8.34151 43.348
rfemur -71.1807 0.349486 12.9875
rtibia 47.5729
rfoot -13.6596 -11.8507
rtoes -6.90886
lfemur -46.234 -0.747568 -25.1072
ltibia 79.9988
lfoot -29.8226 8.97011
ltoes -20.9838
420
root 29.2562 14.1835 -4.36915 -36.3852 -86.7714 49.1416
lowerback 33.4245 -1.12586 0.392383
upperback 7.24514 -2.1675 -1.08078
thorax -9.13467 -1.3174 -0.498608
lowerneck -4.51842 0.455241 3.27829
upperneck -18.2743 -0.00543727 0.0600623
head -4.75316 -0.518003 -0.504198
rclavicle 1.67973e-014 2.69353e-014
rhumerus -20.2762 1.54349 -86.4414
rradius 45.9515
rwrist -8.88953
rhand -18.9488 -7.03362
rfingers 7.12502
rthumb 7.3546 -36.8858
lclavicle 1.67973e-014 2.69353e-014
lhumerus -21.5932 -2.87413 82.1756
lradius 46.6705
lwrist 28.9382
lhand -17.9218 13.5154
lfingers 7.12502
lthumb 8.34583 43.3305
rfemur -71.4633 0.263211 13.0023
rtibia 48.8071
rfoot -12.7062 -12.7947
rtoes -5.48926
lfemur -45.9829 -0.584619 -25.0577
ltibia 80.3737
lfoot -29.8362 8.89063
ltoes -21.4048
421
root 29.1214 14.1688 -4.40185 -33.1258 -86.5503 45.9495
lowerback 33.3761 -1.20626 0.531354
upperback 7.22754 -2.21519 -1.07617
thorax -9.14006 -1.33925 -0.55118
lowerneck -4.52264 0.419196 3.29177
upperneck -18.2996 -0.055352 0.061071
head -4.7612 -0.54426 -0.504733
rclavicle -3.19049e-014 -4.63168e-014
rhumerus -20.3326 1.46248 -86.4236
rradius 45.8563
rwrist -8.84919
rhand -18.9838 -7.03541
rfingers 7.12502
rthumb 7.3208 -36.8888
lclavicle -3.19049e-014 -4.63168e-014
lhumerus -21.6361 -2.85572 82.2256
lradius 46.6597
lwrist 28.8279
lhand -17.9262 13.4955
lfingers 7.12502
lthumb 8.34159 43.3108
rfemur -71.8301 0.1449 13.0979
rtibia 50.1955
rfoot -11.9386 -13.7855
rtoes -4.2223
lfemur -45.7307 -0.39964 -24.9918
ltibia 80.7402
lfoot -29.8011 8.86911
ltoes -21.8394
422
root 28.9858 14.1562 -4.43506 -30.3249 -86.3442 43.2077
lowerback 33.3522 -1.2802 0.68098
upperback 7.21074 -2.25219 -1.07151
thorax -9.15418 -1.35665 -0.612772
lowerneck -4.52357 0.382499 3.30383
upperneck -18.3486 -0.107382 0.0596749
head -4.77713 -0.572241 -0.505655
rclavicle 4.67144e-015 1.15295e-014
rhumerus -20.3714 1.37753 -86.4082
rradius 45.7466
rwrist -8.80511
rhand -19.0271 -7.04464
rfingers 7.12502
rthumb 7.27897 -36.8994
lclavicle 4.67144e-015 1.15295e-014
lhumerus -21.6713 -2.82334 82.2725
lradius 46.6354
lwrist 28.7422
lhand -17.934 13.4846
lfingers 7.12502
lthumb 8.33407 43.3002
rfemur -72.2276 0.0353784 13.2155
rtibia 51.6161
rfoot -11.4758 -14.7542
rtoes -3.20262
lfemur -45.4584 -0.184383 -24.9132
ltibia 81.0853
lfoot -29.72 8.89544
ltoes -22.2698
423
root 28.8492 14.1462 -4.46875 -28.0132 -86.154 40.9401
lowerback 33.3611 -1.34609 0.828413
upperback 7.19604 -2.281 -1.06691
thorax -9.17847 -1.37069 -0.675498
lowerneck -4.52472 0.345994 3.31201
upperneck -18.4169 -0.161164 0.0512272
head -4.79899 -0.601241 -0.50801
rclavicle -1.2424e-014 -1.19271e-014
rhumerus -20.388 1.30305 -86.3933
rradius 45.6211
rwrist -8.76136
rhand -19.0711 -7.06474
rfingers 7.12502
rthumb 7.23651 -36.921
lclavicle -1.2424e-014 -1.19271e-014
lhumerus -21.7014 -2.77629 82.3185
lradius 46.6013
lwrist 28.6913
lhand -17.9543 13.4674
lfingers 7.12502
lthumb 8.31448 43.2838
rfemur -72.6021 -0.0407519 13.3202
rtibia 52.9674
rfoot -11.3363 -15.6467
rtoes -2.50921
lfemur -45.1473 0.0655285 -24.8304
ltibia 81.3954
lfoot -29.5955 8.97247
ltoes -22.6768
